<?xml version="1.0" encoding="UTF-8"?><svg id="Layer_1" xmlns="http://www.w3.org/2000/svg" viewBox="0 0 828.47 571.03"><defs><style>.cls-1{fill:#5069b1;}</style></defs><path class="cls-1" d="M334.97,351.92v.37s0-.19,0-.37Z"/><path class="cls-1" d="M334.97,351.92v-.37s0,.19,0,.37Z"/><path class="cls-1" d="M334.72,214.86h-80.99c-10.06-2-19.67-8.61-21.26-10.15-8.44-8.14-17.5-23.97-18.68-45.69-.16-2.87-1.37-30.6,12.17-47.63,10.15-12.77,23.58-13.05,27.78-13.05.01,0,.02,0,.04,0v-.02h80.95v.02s.02,0,.03,0c12.53,0,12.69,16.96,12.69,16.98-.05,6.95-1.79,18.06-12.44,18.05,0,0-.02,0-.03,0v.02h-82.77c-8.14,0-14.8,9.94-14.8,22.09v7.08c0,12.15,6.66,22.09,14.8,22.09h82.8s0,0,0,0h5.46c.74,0,1.47-.08,2.18-.24,35.93-2.41,45.45-22.87,45.45-68.55s-9.67-66-45.32-68.52c-.75-.18-1.52-.27-2.3-.27h-5.71s0,0,0,0c0,0,0,0,0,0h-81.02s0,0,0,0c-6.36,0-38.7-1.49-60.76,32.11-19.88,30.29-19.43,70.65-19.32,79.85,0,.86.02,2.15.07,3.8.34,12.07,1.73,56.62,26.41,83.24,12.5,13.48,27.14,18.21,38.5,19.65.99.27,2,.42,3.04.42h1.49c3.34.2,6.26.14,8.58,0h84.93c10.62,1.64,10.77,16.81,10.77,16.83-.04,5.88-1.3,14.75-8.15,17.32h-97.77s-20.72-1.9-41.74,19.17c-25.19,25.24-26.42,81.73-26.48,87.04-.1,9.2-.56,49.56,19.32,79.85,19.31,29.42,47.41,32.63,58.38,32.97.28.02.57.04.85.04h1.79c.34,0,.66,0,.92,0h79.83s0,0,0,0c0,0,0,0,0,0h5.71c.78,0,1.55-.09,2.3-.27,35.65-2.52,45.32-23,45.32-68.52s-9.51-66.15-45.45-68.55c-.71-.16-1.44-.24-2.18-.24h-88.26c-8.14,0-14.8,9.94-14.8,22.09v7.08c0,12.15,6.66,22.09,14.8,22.09h82.77v.02s.02,0,.03,0c10.65-.01,12.39,11.1,12.44,18.05,0,.03-.16,16.98-12.69,16.98,0,0-.02,0-.03,0v.02h-77.75s.02-.02-.18,0h-4.59c-.81,0-1.61.1-2.39.3-6.28-.93-16.25-4.69-23.86-14.26-13.54-17.03-12.32-44.76-12.17-47.63,1.18-21.72,10.25-37.55,18.68-45.69,1.94-1.87,6.13-7.89,20.79-9.25h82.05c42.25,0,53.12-19.29,53.12-68.05,0-31.26-6.76-49.46-18.96-60.65-7.34-4.87-10.49-6.37-19.69-7.97h-8.3c-2.05-.11-4.2,0-6.41,0"/><path class="cls-1" d="M455.02,448.57h7.08c12.15,0,22.09,0,22.09-32.85v-195.84c0-18.07-9.94-32.85-22.09-32.85h-7.08c-12.15,0-22.09,14.78-22.09,32.85v195.84c0,18.07,9.94,32.85,22.09,32.85Z"/><path class="cls-1" d="M541.35,448.57h7.08c12.15,0,22.09-14.78,22.09-32.85v-195.84c0-18.07-9.94-32.85-22.09-32.85h-7.08c-12.15,0-22.09,14.78-22.09,32.85v195.84c0,32.85,9.94,32.85,22.09,32.85Z"/><path class="cls-1" d="M625.67,159.8h-.58c-13.94,0-25.35,16.96-25.34,37.68.04,82.66,2.21,233.74,3.38,297.73.36,19.66,5.98,28.72,30.2,28.76,22.11.04,21.81-22.2,21.84-35.12.2-74.13-2.38-191.19-4.16-291.38,0-20.73-11.4-37.68-25.34-37.68Z"/><path class="cls-1" d="M432.93,403.04s0-.04,0-.06h51.28s0,.04,0,.06c0,27.79,16.96,28.16,16.98,28.16,6.95-.11,18.06-3.98,18.05-27.6,0-.02,0-.04,0-.06h51.28s0,.04,0,.06c0,93.75-20.03,119.8-68.8,119.8s-68.8-26.61-68.8-120.36Z"/><path class="cls-1" d="M601.23,230.87c-.22,7.62-.43,15.24-.65,22.87h0c-1.11-62.27,0-93.11-16.05-114.83-2.55-3.44-17.29-23.39-39.64-24.26-24.27-.95-41.36,21.22-43.71,24.26-18.08,23.44-17.45,57.72-16.97,84.37,0,.01,0,.07,0,.08h-51.28s0-.06,0-.08c0-32.17-1.64-93.69,32.11-134.81,4.94-6.02,33.81-41.19,77.48-41.41,54.44-.28,87.45,53.96,89.41,57.29,17.81,30.3,19.74,65.88,19.71,123.23,0,7.64,0,15.27-.01,22.91-7.48-4.61-16.04-9.07-25.59-12.73-8.98-3.44-17.32-5.58-24.82-6.88Z"/></svg>